# xmcd CD database file
#
# Track frame offsets:
#	150
#	16190
#	33652
#	47042
#	64570
#	83182
#	103478
#	125374
#	143406
#	159773
#	171864
#	189345
#	212200
#	237971
#	332550
#
# Disc length: 4440 seconds
#
# Revision: 0
# Processed by: cddbd v1.5.1PL0 Copyright (c) Steve Scherf et al.
# Submitted via: CDex 1.51
#
DISCID=c411560f
DTITLE=平川地一丁目 - えんぴつで作る歌
DYEAR=2004
DGENRE=JPop
TTITLE0=福田の夕陽
TTITLE1=とうきょう
TTITLE2=せんこうの華
TTITLE3=星から吹く風
TTITLE4=風は海を渡れる
TTITLE5=ぼくの夏休み
TTITLE6=君の分まで
TTITLE7=君のくつ
TTITLE8=「ただいま」の予感
TTITLE9=いつかの僕へ
TTITLE10=君との約束
TTITLE11=桜の隠す別れ道
TTITLE12=夕暮れ時の帰り道
TTITLE13=データ14
TTITLE14=データ15
EXTD=YEAR: 2004
EXTT0=
EXTT1=
EXTT2=
EXTT3=
EXTT4=
EXTT5=
EXTT6=
EXTT7=
EXTT8=
EXTT9=
EXTT10=
EXTT11=
EXTT12=
EXTT13=
EXTT14=
PLAYORDER=
